HIERARCHY
ROOT SpineBase
{
  OFFSET 0.000000 0.000000 0.000000
  CHANNELS 6 Xposition Yposition Zposition Zrotation Xrotation Yrotation
  JOINT SpineMid
  {
    OFFSET -0.000000 30.454130 0.000000
    CHANNELS 3 Zrotation Xrotation Yrotation
    JOINT SpineShoulder
    {
      OFFSET 0.197505 22.531164 -0.923681
      CHANNELS 3 Zrotation Xrotation Yrotation
      JOINT Neck
      {
        OFFSET 0.090055 7.469040 -0.686927
        CHANNELS 3 Zrotation Xrotation Yrotation
        JOINT Head
        {
          OFFSET -2.473116 13.743206 -2.602277
          CHANNELS 3 Zrotation Xrotation Yrotation
          End Site
          {
            OFFSET 0 0 0
          }
        }
      }
      JOINT ShoulderLeft
      {
        OFFSET -17.850196 -2.916414 3.727071
        CHANNELS 3 Zrotation Xrotation Yrotation
        JOINT ElbowLeft
        {
          OFFSET -1.269250 -24.250061 1.929911
          CHANNELS 3 Zrotation Xrotation Yrotation
          JOINT WristLeft
          {
            OFFSET 1.802212 -20.035350 -6.360300
            CHANNELS 3 Zrotation Xrotation Yrotation
            JOINT HandLeft
            {
              OFFSET 3.041577 -6.177498 -2.712837
              CHANNELS 3 Zrotation Xrotation Yrotation
              JOINT HandTipLeft
              {
                OFFSET 0.557989 -6.046463 -2.957917
                CHANNELS 3 Zrotation Xrotation Yrotation
                End Site
                {
                  OFFSET 0 0 0
                }
              }
              JOINT ThumbLeft
              {
                OFFSET 4.239985 3.426716 -4.361934
                CHANNELS 3 Zrotation Xrotation Yrotation
                End Site
                {
                  OFFSET 0 0 0
                }
              }
            }
          }
        }
      }
      JOINT ShoulderRight
      {
        OFFSET 15.963617 -2.299403 -6.026746
        CHANNELS 3 Zrotation Xrotation Yrotation
        JOINT ElbowRight
        {
          OFFSET 5.794539 -23.964573 -1.772747
          CHANNELS 3 Zrotation Xrotation Yrotation
          JOINT WristRight
          {
            OFFSET -3.971447 -18.958783 -6.015342
            CHANNELS 3 Zrotation Xrotation Yrotation
            JOINT HandRight
            {
              OFFSET -3.486302 -7.164807 -1.494525
              CHANNELS 3 Zrotation Xrotation Yrotation
              JOINT HandTipRight
              {
                OFFSET -1.899175 -7.181731 -1.849922
                CHANNELS 3 Zrotation Xrotation Yrotation
                End Site
                {
                  OFFSET 0 0 0
                }
              }
              JOINT ThumbRight
              {
                OFFSET 3.550561 -0.353337 0.903566
                CHANNELS 3 Zrotation Xrotation Yrotation
                End Site
                {
                  OFFSET 0 0 0
                }
              }
            }
          }
        }
      }
    }
  }
  JOINT HipLeft
  {
    OFFSET -7.058375 0.112028 -1.816385
    CHANNELS 3 Zrotation Xrotation Yrotation
    JOINT KneeLeft
    {
      OFFSET 1.851118 -34.649637 5.526025
      CHANNELS 3 Zrotation Xrotation Yrotation
      JOINT AnkleLeft
      {
        OFFSET 5.203472 -33.680602 10.298046
        CHANNELS 3 Zrotation Xrotation Yrotation
        JOINT FootLeft
        {
          OFFSET -2.555853 -3.898245 -13.276507
          CHANNELS 3 Zrotation Xrotation Yrotation
          End Site
          {
            OFFSET 0 0 0
          }
        }
      }
    }
  }
  JOINT HipRight
  {
    OFFSET 7.698307 1.323030 -5.404622
    CHANNELS 3 Zrotation Xrotation Yrotation
    JOINT KneeRight
    {
      OFFSET 6.190716 -32.378276 -4.917581
      CHANNELS 3 Zrotation Xrotation Yrotation
      JOINT AnkleRight
      {
        OFFSET 4.572587 -37.217325 11.361840
        CHANNELS 3 Zrotation Xrotation Yrotation
        JOINT FootRight
        {
          OFFSET -1.946971 -6.491894 -8.064244
          CHANNELS 3 Zrotation Xrotation Yrotation
          End Site
          {
            OFFSET 0 0 0
          }
        }
      }
    }
  }
}
MOTION
Frames: 16
Frame Time: 0.033333
-33.027822 77.009859 366.271839 0.000000 0.000000 13.666814 -0.000000 0.000000 -13.666814 -0.000000 0.000000 0.000000 -0.000000 0.000000 0.000000 0.000000 0.000000 0.000000 -0.000000 0.000000 0.000000 -0.000000 0.000000 0.000000 -0.000000 0.000000 0.000000 -0.000000 0.000000 0.000000 0.000000 0.000000 0.000000 0.000000 0.000000 0.000000 -0.000000 0.000000 0.000000 -0.000000 0.000000 0.000000 -0.000000 0.000000 0.000000 -0.000000 0.000000 0.000000 0.000000 0.000000 0.000000 0.000000 0.000000 0.000000 -0.000000 0.000000 -13.666814 -0.000000 0.000000 0.000000 -0.000000 0.000000 0.000000 0.000000 0.000000 0.000000 -0.000000 0.000000 -13.666814 -0.000000 0.000000 0.000000 -0.000000 0.000000 0.000000 0.000000 0.000000 0.000000
-32.483607 77.044165 365.445225 -0.235023 0.003453 14.237358 0.226955 -0.061148 -14.237229 -0.000000 0.000000 0.000000 0.528677 1.871017 0.429165 0.000000 0.000000 0.000000 -0.000000 0.000000 0.000000 -0.000000 0.000000 0.000000 -1.730961 -0.464729 0.529244 1.317765 -3.477896 -0.734146 0.000000 0.000000 0.000000 0.000000 0.000000 0.000000 -0.000000 0.000000 0.000000 -0.000000 0.000000 0.000000 2.126470 -0.910386 0.016446 -2.765401 1.721079 -0.017832 0.000000 0.000000 0.000000 0.000000 0.000000 0.000000 0.226955 -0.061148 -14.237229 -0.485180 -0.642601 -0.250082 0.482401 0.644689 0.244647 0.000000 0.000000 0.000000 -0.481012 -1.176116 -14.422666 0.408070 1.256106 0.173319 -1.176654 5.287971 -0.066953 0.000000 0.000000 0.000000
-31.979777 77.072980 364.684505 -0.475973 0.009231 14.741382 0.457958 -0.130040 -14.740824 -0.000000 0.000000 0.000000 0.898758 3.511834 0.778197 0.000000 0.000000 0.000000 -0.000000 0.000000 0.000000 -0.000000 0.000000 0.000000 -3.110924 -0.942816 0.891799 2.294299 -6.156366 -1.293130 0.000000 0.000000 0.000000 0.000000 0.000000 0.000000 -0.000000 0.000000 0.000000 -1.216455 0.056083 0.373934 4.525543 -1.859922 -0.142576 -4.345125 3.331437 -0.219002 0.000000 0.000000 0.000000 0.000000 0.000000 0.000000 -0.306096 -0.991326 -14.885905 -0.429542 -0.231190 -0.344152 0.939283 1.265418 0.473329 0.000000 0.000000 0.000000 -0.910096 -2.259173 -15.112663 0.234440 3.298053 0.302183 -1.621351 8.711357 -0.015582 0.000000 0.000000 0.000000
-31.516333 77.096302 363.989679 -0.723093 0.017317 15.179025 0.693335 -0.206039 -15.177669 -0.503921 0.688366 -0.051644 1.613804 4.233523 1.127180 0.000000 0.000000 0.000000 0.598938 0.235528 0.017301 -0.771762 -1.510971 0.188173 -3.507417 -0.836612 0.983245 3.006971 -8.093193 -1.681637 0.000000 0.000000 0.000000 0.000000 0.000000 0.000000 0.504577 -0.687885 0.057700 -1.559991 0.185192 0.457180 5.289814 -2.877031 0.167799 -4.881699 4.882701 -0.632682 0.000000 0.000000 0.000000 0.000000 0.000000 0.000000 -0.354543 -1.381565 -15.379329 -0.688064 -0.437502 -0.518389 1.370429 1.861008 0.686451 0.000000 0.000000 0.000000 -1.279567 -3.251611 -15.733622 0.271768 4.664292 0.426973 -2.157742 11.881116 0.084117 0.000000 0.000000 0.000000
-31.093273 77.114133 363.360746 -0.976636 0.027704 15.550411 0.371767 0.338875 -15.580639 -0.017184 0.388190 -0.041540 1.899041 5.256541 1.369339 0.000000 0.000000 0.000000 0.678192 0.310140 0.018009 -0.850697 -2.000712 0.249875 -4.081960 -1.074179 1.042853 3.508860 -9.338619 -1.899847 0.000000 0.000000 0.000000 0.000000 0.000000 0.000000 -0.121988 -0.850257 0.130786 -0.886766 0.392842 0.413617 5.180367 -4.025450 0.722679 -4.408587 6.416287 -1.307267 0.000000 0.000000 0.000000 0.000000 0.000000 0.000000 -0.329372 -1.705416 -15.793777 -0.974283 -0.702235 -0.694678 1.527804 2.418990 1.742855 0.000000 0.000000 0.000000 -1.582445 -4.155939 -16.282409 0.261047 5.832501 0.534266 -2.558883 14.453549 0.221427 0.000000 0.000000 0.000000
-30.710599 77.126471 362.797708 -1.236867 0.040385 15.855635 0.405445 0.381897 -15.894833 -0.025066 0.440090 -0.054198 2.064096 6.084722 1.551916 0.000000 0.000000 0.000000 0.697406 0.382148 0.015847 -0.842642 -2.484538 0.312919 -4.402785 -1.295969 0.982730 3.833656 -9.926312 -1.944998 0.000000 0.000000 0.000000 0.000000 0.000000 0.000000 -0.124820 -0.933236 0.179296 -0.644348 0.630390 0.336710 4.162426 -5.386167 1.536960 -2.862558 7.971230 -2.321894 0.000000 0.000000 0.000000 0.000000 0.000000 0.000000 -0.228040 -1.964871 -16.128240 -1.287480 -1.024317 -0.873635 1.859544 2.961408 2.090630 0.000000 0.000000 0.000000 -1.812401 -4.974544 -16.755984 0.206168 6.798285 0.623668 -2.851023 16.546225 0.382687 0.000000 0.000000 0.000000
-30.318093 77.138805 362.240828 -1.538356 0.063120 16.036021 0.373353 0.382571 -16.087336 -0.041362 0.459067 -0.071527 1.888678 6.736495 1.637124 0.000000 0.000000 0.000000 0.641914 0.524936 0.008894 -1.013567 -3.192461 0.465122 -3.044734 -0.950351 0.417491 2.823009 -9.444109 -1.299689 0.000000 0.000000 0.000000 0.000000 0.000000 0.000000 -0.054150 -0.919721 0.242825 -0.017939 0.955197 0.119451 1.530552 -7.190806 2.794981 0.273108 8.390013 -3.608338 0.000000 0.000000 0.000000 0.000000 0.000000 0.000000 0.003163 -2.157658 -16.319110 -1.705288 -1.515364 -1.095060 2.243074 3.572542 2.397042 0.000000 0.000000 0.000000 -1.960589 -5.846496 -17.122408 0.014494 7.489502 0.676710 -3.589881 21.957612 0.538572 0.000000 0.000000 0.000000
-30.009618 77.139134 361.798110 -1.810571 0.103781 16.176509 0.339895 0.385262 -16.238706 -0.057020 0.459483 -0.087502 1.525329 7.015556 1.634921 0.000000 0.000000 0.000000 0.421315 0.565411 -0.007036 -0.492055 -3.707133 0.478943 -3.206864 -1.496780 0.022909 3.347338 -10.659238 -1.289849 0.000000 0.000000 0.000000 0.000000 0.000000 0.000000 0.018007 -0.878920 0.309036 0.691665 1.544329 -0.198823 -2.286082 -10.234422 4.574212 5.102700 10.749100 -6.238962 0.000000 0.000000 0.000000 0.000000 0.000000 0.000000 0.306627 -2.275775 -16.447817 -2.155867 -2.030340 -1.312035 2.589957 4.101513 2.644458 0.000000 0.000000 0.000000 -2.026380 -6.519819 -17.405062 -0.199719 8.048064 0.717574 -3.469263 22.601728 0.701756 0.000000 0.000000 0.000000
-29.764353 77.133412 361.469784 -2.040597 0.146268 16.221521 0.327113 0.393628 -16.292116 -0.057969 0.459034 -0.099287 1.229136 7.116691 1.615517 0.000000 0.000000 0.000000 0.116862 0.574903 -0.030401 -0.021069 -4.054326 0.524696 -3.420941 -1.817369 -0.161537 3.820013 -7.391193 -0.884601 0.000000 0.000000 0.000000 0.000000 0.000000 0.000000 0.075130 -0.763405 0.386550 1.415023 1.864895 -0.524070 -7.410059 -13.614036 6.370382 11.655661 12.678983 -9.677004 0.000000 0.000000 0.000000 0.000000 0.000000 0.000000 0.561673 -2.347485 -16.481703 -2.445780 -2.465233 -1.469209 2.789679 4.510260 2.877816 0.000000 0.000000 0.000000 -2.046186 -7.012516 -17.550988 -0.386096 8.432009 0.737973 -2.945335 20.454551 0.954001 0.000000 0.000000 0.000000
-29.539828 77.126209 361.187849 -2.297532 0.156012 16.315931 0.323864 0.407974 -16.395770 -0.057493 0.467137 -0.111724 1.310671 7.411698 1.681754 0.000000 0.000000 0.000000 0.018064 0.678976 -0.038786 0.387325 -4.659425 0.503752 -3.831127 -1.614017 -0.042166 4.166944 -6.714484 -0.881711 0.000000 0.000000 0.000000 0.000000 0.000000 0.000000 -0.292118 -0.894277 0.424088 2.626705 2.397530 -0.829505 -13.627361 -16.550538 7.661626 18.893091 15.133467 -13.447489 0.000000 0.000000 0.000000 0.000000 0.000000 0.000000 0.827790 -2.404291 -16.568985 -2.721446 -2.849990 -1.619016 2.979227 4.871850 3.163665 0.000000 0.000000 0.000000 -2.020515 -7.425680 -17.733709 -0.300897 8.716858 0.786353 -3.100739 20.532238 1.145891 0.000000 0.000000 0.000000
-29.375692 77.126909 360.977003 -2.535021 0.144783 16.563789 0.322968 0.417933 -16.652347 -0.059414 0.473318 -0.123260 1.533852 7.718388 1.764958 0.000000 0.000000 0.000000 -0.050732 0.736659 -0.041962 1.066694 -4.850436 0.427807 -4.757092 -2.128658 0.011228 4.417828 -5.822474 -0.661710 0.000000 0.000000 0.000000 0.000000 0.000000 0.000000 -0.417275 -0.901931 0.469709 2.990691 2.591143 -0.893641 -22.651160 -19.965148 8.579797 29.791000 15.123852 -18.220107 0.000000 0.000000 0.000000 0.000000 0.000000 0.000000 1.104097 -2.425685 -16.803860 -2.918414 -3.153205 -1.724908 3.064793 5.121613 3.431840 0.000000 0.000000 0.000000 -1.930073 -7.756687 -18.059533 -0.320414 8.754862 0.805942 -3.255340 20.755759 1.399910 0.000000 0.000000 0.000000
-29.247168 77.144833 360.815967 -2.682864 0.174414 16.863877 0.319975 0.412275 -16.957404 -0.060528 0.470594 -0.130596 1.683522 7.724812 1.786186 0.000000 0.000000 0.000000 0.019753 0.744965 -0.034324 1.342580 -4.993080 0.375457 -5.744583 -2.269431 0.333458 3.944995 -7.172594 -0.514543 0.000000 0.000000 0.000000 0.000000 0.000000 0.000000 -0.739874 -0.851380 0.532092 2.708475 2.292641 -0.644851 -32.707168 -21.385231 8.472460 41.295995 11.309204 -21.464640 0.000000 0.000000 0.000000 0.000000 0.000000 0.000000 1.253613 -2.482738 -17.096211 -3.042445 -3.354221 -1.795099 3.103788 5.296020 3.665611 0.000000 0.000000 0.000000 -1.913219 -8.066252 -18.430954 -0.388182 8.815510 0.827107 -3.373270 20.917083 1.637447 0.000000 0.000000 0.000000
-29.112803 77.166008 360.630945 -2.828287 0.195834 17.169961 0.302152 0.398305 -17.269079 -0.069495 0.464522 -0.139071 2.103070 7.861500 1.862191 0.000000 0.000000 0.000000 0.210446 0.768558 -0.015864 1.383511 -5.355746 0.324470 -6.663765 -1.334565 1.192076 4.681163 -6.778676 -1.107783 0.000000 0.000000 0.000000 0.000000 0.000000 0.000000 -1.153466 -0.705455 0.623679 5.189835 2.347930 -1.394337 -41.895095 -23.109210 8.628192 49.570959 10.430909 -24.073824 0.000000 0.000000 0.000000 0.000000 0.000000 0.000000 1.326327 -2.601371 -17.410615 -3.068657 -3.451957 -1.830873 3.087807 5.445449 3.931846 0.000000 0.000000 0.000000 -1.921770 -8.392669 -18.815816 -0.463670 8.932230 0.853813 -3.509544 21.039650 1.919563 0.000000 0.000000 0.000000
-29.012037 77.190245 360.456336 -2.962114 0.210514 17.530840 0.287839 0.401118 -17.635111 -0.069016 0.478923 -0.145998 2.550915 7.724399 1.896286 0.000000 0.000000 0.000000 0.602599 0.822406 0.016796 1.196661 -5.567241 0.278171 -8.005094 -0.877054 2.076969 5.858933 -3.943565 -1.461510 0.000000 0.000000 0.000000 0.000000 0.000000 0.000000 -1.625343 -0.549085 0.727931 5.866600 0.854354 -1.210920 -27.558972 -18.044490 8.947023 34.718231 9.908468 -18.274463 0.000000 0.000000 0.000000 0.000000 0.000000 0.000000 1.371530 -2.731616 -17.783343 -2.985623 -3.494134 -1.824723 2.971668 5.553387 4.182116 0.000000 0.000000 0.000000 -1.873597 -8.697581 -19.254030 -0.637537 9.039289 0.889682 -3.630730 21.130811 2.217924 0.000000 0.000000 0.000000
-28.928376 77.210155 360.304284 -3.016319 0.245936 17.823010 0.234679 0.338823 -17.930976 -0.089513 0.457732 -0.152177 2.984081 7.571318 1.907406 0.000000 0.000000 0.000000 0.812545 0.789324 0.039395 1.158791 -5.553025 0.238740 -9.132545 -1.095436 2.480413 6.273807 -2.743160 -1.394488 0.000000 0.000000 0.000000 0.000000 0.000000 0.000000 -1.723929 -0.109348 0.862588 6.167849 -1.078463 -0.988414 -16.720934 -12.546892 7.749546 20.833290 8.081548 -11.801874 0.000000 0.000000 0.000000 0.000000 0.000000 0.000000 1.304750 -2.891711 -18.094768 -2.852295 -3.435298 -1.790827 2.845191 5.599971 4.359972 0.000000 0.000000 0.000000 -1.907336 -8.993030 -19.621426 -0.836526 9.158377 0.921150 -3.673614 21.210305 2.467664 0.000000 0.000000 0.000000
-28.954365 77.236364 360.206618 -3.167243 0.187303 18.220741 0.266744 0.261821 -18.334100 -0.103363 0.401543 -0.158447 3.363120 7.501898 1.900388 0.000000 0.000000 0.000000 1.151162 0.933834 0.069765 0.630026 -5.830135 0.260500 -9.426565 -1.331373 2.419694 7.110706 -0.996087 -1.368174 0.000000 0.000000 0.000000 0.000000 0.000000 0.000000 -1.956238 0.408014 1.003819 7.451353 -2.832465 -1.034072 -12.011945 -10.325841 7.317540 14.151916 7.376276 -9.262886 0.000000 0.000000 0.000000 0.000000 0.000000 0.000000 1.535863 -2.951083 -18.475116 -2.904803 -3.454863 -1.794605 2.689396 5.587410 4.757343 0.000000 0.000000 0.000000 -1.748203 -9.208602 -20.088316 -1.012281 9.346240 0.994537 -3.968609 21.109591 2.865115 0.000000 0.000000 0.000000
